<svg xmlns="http://www.w3.org/2000/svg" version="1.1" xmlns:xlink="http://www.w3.org/1999/xlink" width="512" height="512" x="0" y="0" viewBox="0 0 128 128" style="enable-background:new 0 0 512 512" xml:space="preserve" class=""><g><path d="M29.09 48.35a1.98 1.98 0 0 0-.665.228 15.325 15.325 0 0 1 2.483.45 2.014 2.014 0 0 0-1.818-.678zM96.985 49.056a15.357 15.357 0 0 1 2.781-.499 1.969 1.969 0 0 0-2.78.499zM100.96 43.12v-.1a2.002 2.002 0 0 0-4.002.1v.11a2.006 2.006 0 0 0 2.001 1.89h.11a2.006 2.006 0 0 0 1.89-2zM35.072 25.21a2.012 2.012 0 0 0 2.8-.36 1.937 1.937 0 0 0 .42-1.24 1.997 1.997 0 0 0-3.58-1.21 2.064 2.064 0 0 0-.42 1.24 2.026 2.026 0 0 0 .78 1.57zM97.869 38.13a1.8 1.8 0 0 0 .51-.07 1.985 1.985 0 0 0 1.49-1.94 2.197 2.197 0 0 0-.06-.5 2.003 2.003 0 0 0-3.94.52 1.779 1.779 0 0 0 .07.5 1.996 1.996 0 0 0 1.93 1.49zM48.966 14.45a2.005 2.005 0 1 0-2 1.98 1.89 1.89 0 0 0 .97-.26v.01a2.026 2.026 0 0 0 1.03-1.73zM32.031 36.77a2.223 2.223 0 0 0 .06-.5 1.996 1.996 0 0 0-3.93-.5 1.716 1.716 0 0 0-.071.5 2.015 2.015 0 0 0 1.5 1.94 2.203 2.203 0 0 0 .5.06 2.006 2.006 0 0 0 1.941-1.5zM31.031 43.26a2.002 2.002 0 0 0-4-.09v.1a1.998 1.998 0 0 0 1.9 1.99h.1a2 2 0 0 0 2-1.9zM34.342 30.51a1.913 1.913 0 0 0 .21-.86 2.005 2.005 0 0 0-3.801-.9 2.05 2.05 0 0 0-.2.87 1.982 1.982 0 0 0 1.12 1.81 2.098 2.098 0 0 0 .88.2 1.989 1.989 0 0 0 1.79-1.12zM53.457 13.62a2.216 2.216 0 0 0 .61-.09 2.004 2.004 0 1 0-2.61-1.9 1.783 1.783 0 0 0 .1.6 1.98 1.98 0 0 0 1.9 1.39zM42.474 20a1.97 1.97 0 0 0 .69-1.51 2.041 2.041 0 0 0-.48-1.31 2.006 2.006 0 0 0-3.52 1.3 2.018 2.018 0 0 0 2 2.01 1.998 1.998 0 0 0 1.31-.49zM93.618 23.52a2.06 2.06 0 0 0-.42-1.24 2.003 2.003 0 1 0-1.58 3.23 1.97 1.97 0 0 0 1.23-.42 1.999 1.999 0 0 0 .77-1.57zM95.388 31.5a1.916 1.916 0 0 0 .89-.21 1.992 1.992 0 0 0 1.11-1.81 1.953 1.953 0 0 0-.21-.87 2 2 0 0 0-3.79.92 1.912 1.912 0 0 0 .21.86 1.98 1.98 0 0 0 1.79 1.11zM88.246 19.7a2 2 0 0 0-3.04-2.6 2.02 2.02 0 0 0-.48 1.31 2.001 2.001 0 0 0 3.52 1.29zM67.47 12.17a2.013 2.013 0 0 0 1.991-1.81c0-.06.01-.13.01-.2a2.011 2.011 0 0 0-1.81-1.98 1.984 1.984 0 0 0-2.18 1.79 1.44 1.44 0 0 0-.011.21 1.996 1.996 0 0 0 1.8 1.98 1.368 1.368 0 0 0 .2.01zM60.389 12.18a1.306 1.306 0 0 0 .2-.01h.01a1.988 1.988 0 0 0 1.79-1.99 1.45 1.45 0 0 0-.01-.2 2 2 0 0 0-3.99.2 1.44 1.44 0 0 0 .01.21 2.002 2.002 0 0 0 1.99 1.79zM74.403 13.58a2.007 2.007 0 0 0 1.91-1.41 2.081 2.081 0 0 0 .09-.59 2.002 2.002 0 0 0-3.911-.6 2.081 2.081 0 0 0-.09.6 2.008 2.008 0 0 0 1.41 1.91 1.975 1.975 0 0 0 .59.09zM80.904 16.36a2.007 2.007 0 0 0 1.76-1.03 2.004 2.004 0 0 0-.78-2.72 1.993 1.993 0 0 0-2.72.78 1.929 1.929 0 0 0-.25.95 1.983 1.983 0 0 0 1.03 1.77 1.955 1.955 0 0 0 .96.25z" fill="#ffffff" opacity="1" data-original="#000000" class=""></path><path d="M91.392 51.595c.33-.21.659-.405.987-.593a29.008 29.008 0 1 0-56.759-.001c.336.192.672.392 1.008.606a30.072 30.072 0 0 1 2.402-5.268c-.024-.443-.037-.89-.037-1.338a25.007 25.007 0 0 1 50.014 0c0 .405-.012.807-.031 1.208a30.283 30.283 0 0 1 2.416 5.386z" fill="#ffffff" opacity="1" data-original="#000000" class=""></path><path d="M108.612 50.91a45.012 45.012 0 1 0-89.224-.001 13.697 13.697 0 0 1 3.805-1.826A41.275 41.275 0 0 1 22.99 45a41.011 41.011 0 0 1 82.022 0c0 1.38-.071 2.742-.205 4.087a13.704 13.704 0 0 1 3.806 1.822zM78.783 68.12a10.033 10.033 0 0 0-9.044 1.086 9.715 9.715 0 0 0-1.053.788 2 2 0 0 0 2.63 3.014 5.58 5.58 0 0 1 .632-.467c.023-.015.045-.026.067-.04a1.996 1.996 0 1 0 3.787-.984 5.367 5.367 0 0 1 1.44.293 2 2 0 0 0 1.541-3.69zM58.272 69.213a10.043 10.043 0 0 0-9.055-1.094 2 2 0 1 0 1.559 3.684 5.316 5.316 0 0 1 1.42-.282 1.994 1.994 0 1 0 3.79.98c.025.017.05.03.077.047a5.564 5.564 0 0 1 .62.46 2 2 0 1 0 2.63-3.014 9.747 9.747 0 0 0-1.041-.781zM65.118 64.718a2.002 2.002 0 0 0-2.237 0 2.012 2.012 0 0 0-.54.54 2 2 0 1 0 3.318 0 2.012 2.012 0 0 0-.54-.54z" fill="#ffffff" opacity="1" data-original="#000000" class=""></path><path d="M100.188 52.532c-4.393.321-8.525 3.486-11.313 6.209a25.694 25.694 0 0 0-16.419-21.7 7.826 7.826 0 0 0-.46-.97L65.74 25.017a2 2 0 0 0-3.482 0l-6.255 11.056a7.804 7.804 0 0 0-.475 1.013A25.876 25.876 0 0 0 39.125 58.74c-2.789-2.722-6.92-5.887-11.314-6.208a9.777 9.777 0 0 0-7.903 3.13c-6.825 6.877-3.323 13.126.063 19.17 2.552 4.554 5.444 9.716 5.19 16.323-.286 7.36 3.95 10.474 7.662 10.906 4.84.566 10.5-2.828 13.443-10.283.447.721.93 1.45 1.431 2.18a17.433 17.433 0 0 1-7.493 11.69 2 2 0 0 0 .58 3.703 17.303 17.303 0 0 0 3.395.32c3.531 0 7.935-.978 10.975-4.259 2.357 8.835 7.23 18.215 17.23 22.295a3.951 3.951 0 0 0 3.6-.314 3.851 3.851 0 0 0 1.781-3.041l.042-.778 1.052-.521a3.848 3.848 0 0 0 .884-6.301 18.66 18.66 0 0 1-5.479-9.276 16.435 16.435 0 0 0 8.464 2.19 17.236 17.236 0 0 0 3.366-.315 2 2 0 0 0 .58-3.704 17.343 17.343 0 0 1-7.226-10.464 57.392 57.392 0 0 0 2.33-3.458c2.943 7.467 8.598 10.873 13.435 10.306 3.696-.429 7.91-3.534 7.626-10.876-.255-6.607 2.637-11.769 5.19-16.323 3.386-6.044 6.887-12.293.064-19.168a9.783 9.783 0 0 0-7.905-3.132zM59.487 38.041 64 30.063l4.513 7.978a3.497 3.497 0 0 1-.021 3.596 5.45 5.45 0 0 1-8.984 0 3.497 3.497 0 0 1-.021-3.596zm-16.382 21.1a21.947 21.947 0 0 1 12.117-17.584 7.678 7.678 0 0 0 .83 2.096 9.439 9.439 0 0 0 15.896 0 7.67 7.67 0 0 0 .837-2.13 21.8 21.8 0 0 1 12.11 17.619c.034.348.06.694.078 1.04-3.562-2.643-8.96-4.518-15.186-5.248a5.994 5.994 0 0 0-11.574.001c-6.226.73-11.624 2.606-15.187 5.249.019-.348.045-.694.08-1.042zM66 56.502a2 2 0 1 1-2-2 2.003 2.003 0 0 1 2 2zM33.286 98.088c-2.737-.318-4.28-2.852-4.127-6.779.298-7.733-3.026-13.665-5.697-18.432-3.656-6.525-5.214-9.862-.712-14.399a5.936 5.936 0 0 1 4.326-1.972c.145 0 .291.005.439.015 4.403.317 9.274 5.274 11.381 7.875.004.202.009.405.024.61a30.21 30.21 0 0 0-.082 1.905 12.723 12.723 0 0 0-2.012-1.228 2 2 0 0 0-1.675 3.632A9.073 9.073 0 0 1 39.16 73.3a1.946 1.946 0 0 0 .188.3 45.23 45.23 0 0 0 1.292 5.728l-2.884 5.057a2 2 0 0 0 3.475 1.982l1.182-2.072c.357.856.735 1.72 1.163 2.604-1.746 7.848-6.547 11.617-10.29 11.19zm13.13 7.427a21.975 21.975 0 0 0 4.346-7.459q.552.674 1.117 1.322l1.457 1.782a8.984 8.984 0 0 1-6.92 4.355zm34.047 0a9.14 9.14 0 0 1-6.568-3.776l2.188-2.316c.133-.153.252-.306.383-.459a22.003 22.003 0 0 0 3.997 6.55zm.156-19.968a52.839 52.839 0 0 1-6.756 10.306 46.985 46.985 0 0 1 1.672-7.254 2 2 0 0 0-3.819-1.195c-2.48 7.915-5.09 22.584 5.176 32.16l-.929.46a3.864 3.864 0 0 0-2.147 3.251l-.036.68c-15.685-6.509-16.811-29.058-16.782-35.828a2 2 0 0 0-4-.017c-.007 1.57.048 3.921.307 6.716a54.317 54.317 0 0 1-1.856-2.47c-8.096-11.44-8.72-21.91-8.577-26.134 1.485-3.111 7.431-6.274 15.647-7.287a5.995 5.995 0 0 0 10.962 0c8.225 1.013 14.177 4.183 15.653 7.299.355.748-.002 2.484-.055 3.29a42.878 42.878 0 0 1-4.46 16.023zm23.919-12.67c-2.671 4.767-5.995 10.7-5.697 18.432.152 3.911-1.377 6.434-4.089 6.748-3.748.435-8.537-3.354-10.285-11.22q.489-1.012.913-2l.873 1.53a2 2 0 0 0 3.476-1.982l-2.545-4.461a45.536 45.536 0 0 0 1.478-6.338 1.934 1.934 0 0 0 .143-.21c1.037-2.133 3.795-4.246 4.773-4.883a2 2 0 0 0-2.172-3.36 22.908 22.908 0 0 0-2.242 1.713 29.877 29.877 0 0 0-.084-1.85c.015-.202.02-.401.023-.6 2.108-2.6 6.979-7.558 11.382-7.875a5.873 5.873 0 0 1 4.766 1.96c4.501 4.534 2.943 7.87-.713 14.396z" fill="#ffffff" opacity="1" data-original="#000000" class=""></path></g></svg>