<svg xmlns="http://www.w3.org/2000/svg" version="1.1" xmlns:xlink="http://www.w3.org/1999/xlink" width="512" height="512" x="0" y="0" viewBox="0 0 512 512" style="enable-background:new 0 0 512 512" xml:space="preserve"><g><path d="M337.12 241.64a6.48 6.48 0 0 0 9.086-1.135c28.312-36.393 27.368-79.805 9.921-121.31a6.47 6.47 0 0 0-5.058-3.9c-2.243-.339-4.509.566-5.943 2.334l-19.506 24.093c7.721-55.08-14.306-95.196-65.716-119.461a6.457 6.457 0 0 0-6.891.867 6.474 6.474 0 0 0-2.142 6.606c9.571 37.049-40.49 70.881-60.798 96.539-31.534 33.407-35.48 81.549-15.611 113.662a6.47 6.47 0 0 0 8.912 2.099 6.473 6.473 0 0 0 2.099-8.912c-16.941-27.378-13.331-68.989 14.015-97.96 21.632-26.594 65.235-56.226 65.529-95.666 45.192 25.823 59.045 67.031 42.349 125.596a6.476 6.476 0 0 0 11.259 5.849l29.515-36.457c12.008 34.563 10.388 69.096-12.156 98.069a6.477 6.477 0 0 0 1.136 9.087z" fill="#ffffff" opacity="1" data-original="#000000"></path><path d="M305.362 242.775a6.475 6.475 0 0 0 7.951-4.542c4.15-15.212 1.58-30.685-4.522-45.23a6.481 6.481 0 0 0-5.06-3.907 6.537 6.537 0 0 0-5.948 2.344l-3.553 4.4c.286-24.417-11.858-42.559-36.295-54.096a6.45 6.45 0 0 0-6.896.872 6.47 6.47 0 0 0-2.132 6.616c6.864 26.318-49.144 42.511-45.245 87.849.309 3.563 3.525 6.193 7.005 5.897a6.477 6.477 0 0 0 5.897-7.005c-2.999-34.842 39.498-46.01 45.3-77.188 18.562 12.556 23.645 31.278 16.031 58.104a6.472 6.472 0 0 0 3.252 7.516 6.47 6.47 0 0 0 8.014-1.682l11.322-14.02c2.273 8.845 2.711 17.414.336 26.119a6.477 6.477 0 0 0 4.543 7.953zM21.769 490.361H490.23c8.639 0 15.667-7.028 15.667-15.667v-67.383c0-8.639-7.028-15.667-15.667-15.667h-45.05v-60.138c0-14.132-11.496-25.631-25.628-25.631h-47.071v-23.59c0-14.524-11.815-26.339-26.336-26.339H165.857c-14.521 0-26.336 11.815-26.336 26.339v23.59H92.45c-14.132 0-25.631 11.499-25.631 25.631v60.138h-45.05c-8.639 0-15.667 7.028-15.667 15.667v67.383c.001 8.639 7.029 15.667 15.667 15.667zm118.993-85.768h108.764v72.82H140.762zm60.717-85.768h108.764v72.82H201.479zm60.995 85.768h108.764v72.82H262.474zm230.475 2.718v67.383c0 1.5-1.219 2.719-2.719 2.719H384.186v-72.82h106.045a2.72 2.72 0 0 1 2.718 2.718zm-60.716-75.804v60.138H323.469v-72.82h96.084c6.992 0 12.68 5.69 12.68 12.682zm-279.764-49.22c0-7.384 6.006-13.391 13.388-13.391h180.289c7.382 0 13.388 6.006 13.388 13.391v23.59H152.469zm-72.702 49.22c0-6.992 5.69-12.682 12.683-12.682h96.081v72.82H79.767zm-60.716 75.804c0-1.5 1.219-2.719 2.719-2.719h106.045v72.82H21.769a2.721 2.721 0 0 1-2.719-2.719v-67.382z" fill="#ffffff" opacity="1" data-original="#000000"></path></g></svg>