<svg xmlns="http://www.w3.org/2000/svg" version="1.1" xmlns:xlink="http://www.w3.org/1999/xlink" width="512" height="512" x="0" y="0" viewBox="0 0 512.005 512.005" style="enable-background:new 0 0 512 512" xml:space="preserve"><g><path d="M479.625 316.752c3.15 10.16 5.03 21.8 4.87 35.02-.66 18.52-5.9 35.49-13.07 50.02M155.455 316.762c-2.72 8.78-4.49 18.65-4.81 29.7" style="stroke-width:15;stroke-linecap:round;stroke-linejoin:round;stroke-miterlimit:10;" fill="none" stroke="#ffffff" stroke-width="15" stroke-linecap="round" stroke-linejoin="round" stroke-miterlimit="10" data-original="#000000" opacity="1"></path><path d="M262.545 504.502H492.26c5.768 0 10.311-4.866 9.985-10.624-3.313-58.495-33.809-109.721-79.05-141.246M372.545 504.502v-53.15M466.273 483.622l-3.73 20.88M478.753 413.702l-6.33 35.46M154.845 295.362c-14.17-6.69-24.26-24.01-24.26-44.31 0-25.06 15.37-45.56 34.8-47.16" style="stroke-width:15;stroke-linecap:round;stroke-linejoin:round;stroke-miterlimit:10;" fill="none" stroke="#ffffff" stroke-width="15" stroke-linecap="round" stroke-linejoin="round" stroke-miterlimit="10" data-original="#000000" opacity="1"></path><path d="M245.555 382.092c21.02 13.18 45.66 20.76 71.99 20.76 61.85 0 114.32-41.8 132.7-99.72M209.945 350.232c-11-13.78-19.58-29.71-25.1-47.1M179.675 281.182c-1.21-7.69-1.84-15.58-1.84-23.62 0-1.48.02-2.95.07-4.42M457.185 253.072a151.898 151.898 0 0 1-1.77 28.11M469.705 203.892c19.43 1.6 34.8 22.1 34.8 47.16 0 20.3-10.09 37.62-24.26 44.31M255.095 267.79v12M379.992 267.79v12M301.08 279.432c4.003 4.594 9.892 7.501 16.464 7.501s12.461-2.907 16.464-7.501" style="stroke-width:15;stroke-linecap:round;stroke-linejoin:round;stroke-miterlimit:10;" fill="none" stroke="#ffffff" stroke-width="15" stroke-linecap="round" stroke-linejoin="round" stroke-miterlimit="10" data-original="#000000" opacity="1"></path><path d="M465.245 327.502h0c-8.284 0-15-6.716-15-15v-20c0-8.284 6.716-15 15-15h0c8.284 0 15 6.716 15 15v20c0 8.285-6.716 15-15 15zM169.843 327.502h0c8.284 0 15-6.716 15-15v-20c0-8.284-6.716-15-15-15h0c-8.284 0-15 6.716-15 15v20c0 8.285 6.715 15 15 15zM200.485 229.412v23.03c0 8.95-10.92 13.45-17.14 7.01-11.34-11.75-18.18-25.37-18.08-55.66M469.825 203.792c.1 30.32-6.8 43.94-18.19 55.69-6.23 6.42-17.13 1.93-17.13-7.02v-23.07M289.105 162.982l6.1 51.86c.66 5.66 3.4 10.63 7.39 14.18 3.99 3.55 9.25 5.68 14.95 5.68 11.4 0 21-8.53 22.34-19.86l6.1-51.86M275.115 37.502c6.17-17.48 22.84-30 42.43-30 12.42 0 23.68 5.04 31.82 13.18a44.853 44.853 0 0 1 10.61 16.82" style="stroke-width:15;stroke-linecap:round;stroke-linejoin:round;stroke-miterlimit:10;" fill="none" stroke="#ffffff" stroke-width="15" stroke-linecap="round" stroke-linejoin="round" stroke-miterlimit="10" data-original="#000000" opacity="1"></path><circle cx="387.544" cy="122.722" r="15" style="stroke-width:15;stroke-linecap:round;stroke-linejoin:round;stroke-miterlimit:10;" fill="none" stroke="#ffffff" stroke-width="15" stroke-linecap="round" stroke-linejoin="round" stroke-miterlimit="10" data-original="#000000" opacity="1"></circle><circle cx="247.544" cy="122.722" r="15" style="stroke-width:15;stroke-linecap:round;stroke-linejoin:round;stroke-miterlimit:10;" fill="none" stroke="#ffffff" stroke-width="15" stroke-linecap="round" stroke-linejoin="round" stroke-miterlimit="10" data-original="#000000" opacity="1"></circle><path d="M324.38 437.653a10.046 10.046 0 0 0-13.673 0c-6.62 6.125-15.664 17.213-15.664 32.082s9.043 25.957 15.664 32.082a10.046 10.046 0 0 0 13.673 0c6.62-6.125 15.664-17.213 15.664-32.082S331 443.778 324.38 437.653z" style="stroke-width:15;stroke-linecap:round;stroke-linejoin:round;stroke-miterlimit:10;" fill="none" stroke="#ffffff" stroke-width="15" stroke-linecap="round" stroke-linejoin="round" stroke-miterlimit="10" data-original="#000000" opacity="1"></path><path d="M412.535 364.112c.5 57.02-28.98 88.58-72.54 103.79M317.825 434.972c25.83-.11 59.35-15.26 81.7-59.75M240.085 383.562c22.17 38.06 53.04 51.31 77.18 51.41M295.095 467.902c-37.11-12.95-64-37.77-70.84-80.1M382.545 61.552c52.04 18.65 88.91 68.82 87.28 142.24l-26.39 23.36c-6.02 5.32-15.53 1.74-16.55-6.22l-2.59-20.22c-.83-6.42-4.7-12.07-10.42-15.11-21.26-11.28-42.44-18.86-63.55-22.77-3.43-.63-6.98.56-9.25 3.21-6.22 7.26-14.48 11.68-23.53 11.68s-17.31-4.42-23.53-11.68c-2.27-2.65-5.82-3.84-9.25-3.21-21.11 3.91-42.29 11.49-63.55 22.77-5.72 3.04-9.59 8.69-10.42 15.11l-2.59 20.22c-1.02 7.96-10.53 11.54-16.55 6.22l-26.39-23.36c-1.63-73.42 35.24-123.59 87.28-142.24" style="stroke-width:15;stroke-linecap:round;stroke-linejoin:round;stroke-miterlimit:10;" fill="none" stroke="#ffffff" stroke-width="15" stroke-linecap="round" stroke-linejoin="round" stroke-miterlimit="10" data-original="#000000" opacity="1"></path><path d="M262.545 451.352v53.15h-80M335.003 37.502h27.54c11.04 0 20 8.95 20 20v4.05M252.543 61.552v-4.05c0-11.05 8.95-20 20-20h27.46M312.083 79.045c-8.702 5.634-16.327 12.826-16.885 26.199-.013.315-.013.64 0 .956.561 13.376 8.183 20.564 16.885 26.198a10.047 10.047 0 0 0 10.923 0c8.702-5.634 16.324-12.822 16.885-26.198.013-.315.013-.64 0-.956-.558-13.373-8.183-20.565-16.885-26.199a10.043 10.043 0 0 0-10.923 0zM39.655 395.862l-7.49-27.98c-.35-1.3-.52-2.61-.52-3.9 0-6.63 4.42-12.68 11.12-14.48 8-2.14 16.23 2.61 18.37 10.61l7.5 27.98M126.595 372.562l-4.91-18.32c-.35-1.3-.52-2.61-.52-3.9 0-6.62 4.42-12.68 11.12-14.47 8.01-2.14 16.23 2.6 18.37 10.61l4.92 18.32" style="stroke-width:15;stroke-linecap:round;stroke-linejoin:round;stroke-miterlimit:10;" fill="none" stroke="#ffffff" stroke-width="15" stroke-linecap="round" stroke-linejoin="round" stroke-miterlimit="10" data-original="#000000" opacity="1"></path><path d="m290.463 328.652 37.26-9.98c8-2.15 16.22 2.6 18.37 10.6l2.59 9.66c2.14 8-2.61 16.23-10.61 18.37l-309.1 82.83c-8 2.14-16.22-2.61-18.37-10.61l-2.59-9.66c-2.14-8 2.61-16.23 10.61-18.37l50.52-13.54M256.653 337.712l-130.58 34.99" style="stroke-width:15;stroke-linecap:round;stroke-linejoin:round;stroke-miterlimit:10;" fill="none" stroke="#ffffff" stroke-width="15" stroke-linecap="round" stroke-linejoin="round" stroke-miterlimit="10" data-original="#000000" opacity="1"></path><path d="m96.586 376.497-1.294-4.83c-2.144-8.002-10.369-12.751-18.371-10.607h0c-8.002 2.144-12.751 10.369-10.607 18.371l1.294 4.83c2.144 8.002 10.369 12.751 18.371 10.607h0c8.003-2.144 12.751-10.369 10.607-18.371zM125.564 368.732l-1.294-4.83c-2.144-8.002-10.369-12.751-18.371-10.607h0c-8.002 2.144-12.751 10.369-10.607 18.371l1.294 4.83c2.144 8.002 10.369 12.751 18.371 10.607h0c8.002-2.144 12.751-10.369 10.607-18.371zM165.925 403.432l1.81 6.77c1.36 5.08 1.7 10.39 1.01 15.6l-1.59 12.02c-.51 3.92-.25 7.89.77 11.7l14.73 54.98H86.796a10 10 0 0 1-9.659-7.41l-5.813-21.68a30.019 30.019 0 0 0-5.19-10.52l-7.39-9.61a39.909 39.909 0 0 1-6.92-14.02l-1.81-6.77" style="stroke-width:15;stroke-linecap:round;stroke-linejoin:round;stroke-miterlimit:10;" fill="none" stroke="#ffffff" stroke-width="15" stroke-linecap="round" stroke-linejoin="round" stroke-miterlimit="10" data-original="#000000" opacity="1"></path></g></svg>