<svg xmlns="http://www.w3.org/2000/svg" version="1.1" xmlns:xlink="http://www.w3.org/1999/xlink" width="512" height="512" x="0" y="0" viewBox="0 0 512 512" style="enable-background:new 0 0 512 512" xml:space="preserve"><g><path d="M198.2 195c-3.9 0-7.8-1.2-11.6-3.5-10.6-6.6-17.4-20.5-17.4-35.4 0-8.2 2.4-13.5 7.2-15.6 8.2-3.7 18.4 4.8 20.4 6.6l-6.6 7.5c-3.7-3.3-8.5-5.5-9.7-5-.2.1-1.3 1.6-1.3 6.5 0 13.2 6.4 23 12.7 26.9 2.5 1.6 6.3 3 10.2 1.1l4.4 9c-2.6 1.2-5.4 1.9-8.3 1.9zM256 40c-11 0-20-9-20-20s9-20 20-20 20 9 20 20-9 20-20 20zm0-30c-5.5 0-10 4.5-10 10s4.5 10 10 10 10-4.5 10-10-4.5-10-10-10zM126.7 388.5l-9.9-1.1c.3-2.4 6.4-58 19.1-75.9 8.9-12.6 21.1-17.6 35.3-23.4 15.3-6.3 32.7-13.4 51.9-32.2V220h10v38c0 1.3-.5 2.6-1.5 3.5-21.3 21.3-40.9 29.3-56.7 35.8-13.2 5.4-23.7 9.8-30.9 20-9.3 13.1-15.7 55.8-17.3 71.2z" fill="#ffffff" opacity="1" data-original="#000000"></path><path d="M173.9 512h-24.4c-22.3 0-40.6-18.1-40.9-40.4-.4-29.1.8-67.6 8.6-85.6.5-1.3 1.6-2.2 2.9-2.7l11.5-4.2 2.2-14.3c.4-2.4 2.5-4.3 4.9-4.3h31.6c2.1 0 4 1.4 4.7 3.4l3.7 10.9 7.5 3.4c1.8.8 2.9 2.6 2.9 4.5v44.5l10.1-12c.9-1.1 2.3-1.8 3.8-1.8s2.9.6 3.8 1.8l6.6 7.8c.9 1.1 1.3 2.4 1.2 3.8-.1.8-2.5 20.8-8.2 41.1-8.4 29.7-19 44.1-32.5 44.1zm-48.4-120.1c-5 13.7-7.5 41.7-7 79.6.2 16.8 14.1 30.5 30.9 30.5h24.4c14.7 0 26.4-42.7 30.4-74.2l-1.3-1.6-15.1 18c-1.4 1.6-3.6 2.2-5.5 1.5-2-.7-3.3-2.6-3.3-4.7v-55.1l-6.5-3c-1.2-.6-2.2-1.6-2.6-2.9l-3.3-9.5h-23.7l-2 13c-.3 1.8-1.5 3.3-3.2 4z" fill="#ffffff" opacity="1" data-original="#000000"></path><path d="m159 467.3-9.6-2.7c6.6-23.3 25.7-28.8 34.8-28.5l-.3 10c-.8-.1-18.8-.3-24.9 21.2zM169.617 377.567l9.92 1.23-5.486 44.243-9.92-1.23zM148.058 367.22l9.99.36-2.066 57.342-9.99-.36zM130.944 382.22l9.96.85-3.978 46.613-9.96-.85zM85.6 477.5c-18.7 0-34.9-22.5-48.1-66.9-8-26.5-12.5-53.3-13.9-61.6L2.7 338.4c-1.6-.8-2.7-2.6-2.7-4.4v-30c0-1.4.6-2.8 1.7-3.8l16.5-14.5-2.7-6.2c-.8-1.9-.4-4.1 1.1-5.6l9.9-9.5c.9-.9 2.2-1.4 3.5-1.4h39.2c1.2 0 2.4.5 3.3 1.3 2.1 1.9 20.3 18.7 19.5 33.8-.7 12.7-16 31.3-21.4 37.4 8.7 54.9 22.5 68.1 30 71.1 6.4 2.5 11.5-1.2 11.5-1.3l6.2 7.9c-.4.3-9.6 7.4-21.4 2.7-17.1-6.7-29.4-34-36.6-81.2-.2-1.5.2-3 1.3-4.1 7.7-8.4 20-24.7 20.4-33 .4-7.3-8.4-18.4-14.8-24.6H32l-5.9 5.7 2.7 6.3c.9 2 .3 4.3-1.3 5.7L10 306.2v24.6l20.5 10.4c1.4.7 2.4 2.1 2.7 3.7 0 .3 4.7 31.8 13.9 62.7 11.5 38.5 25.2 59.7 38.5 59.7 15.5 0 25.2-5.8 25.3-5.8l5.2 8.5c-.5.5-12.2 7.5-30.5 7.5z" fill="#ffffff" opacity="1" data-original="#000000"></path><path d="m6.9 338.6-3.8-9.3 23.8-9.7 13.3-18.1-7.6-12.6c-.9-1.4-1-3.2-.2-4.8s2.2-2.6 3.9-2.8l23.3-3 1.3 9.9-15.6 2 5.4 8.9c1 1.7.9 3.9-.3 5.5l-16.2 22c-.5.7-1.3 1.3-2.1 1.7zM63.843 329.312l3.03 9.53-37.167 11.817-3.03-9.53zM52.031 372.674l2.8 9.6-18.144 5.292-2.8-9.6zM156.3 299.6c-8.1-22.3 6.4-43 20.5-62.9 11.1-15.7 22.6-31.7 22.6-48.7h10c0 20-12.4 37.6-24.4 54.5-13.1 18.5-25.5 36.2-19.2 53.6zM228.9 169.8c-.4 0-.8 0-1.2-.1-10.3-1-15.4-15.5-16.3-18.3l9.5-3c1.7 5.2 5.3 11.2 7.7 11.4 1.1.1 4-1.6 7.9-8.6l8.8 4.8c-1.8 3.5-7.5 13.8-16.4 13.8zM313.8 195c-2.9 0-5.7-.7-8.3-2l4.4-9c3.9 1.9 7.7.5 10.2-1.1 6.3-3.9 12.7-13.8 12.7-26.9 0-4.9-1.1-6.4-1.3-6.5-1.2-.5-6 1.7-9.7 5l-6.6-7.5c2-1.7 12.2-10.3 20.4-6.6 4.8 2.1 7.2 7.4 7.2 15.6 0 15-6.8 28.9-17.4 35.4-3.8 2.4-7.8 3.6-11.6 3.6zM189.5 153.9c-.6-.9-15.2-21.6-15.2-57.4 0-31.5 52.5-57.2 75.1-66.8l3.9 9.2c-33.3 14.2-69 36.8-69 57.6 0 32.4 13.2 51.4 13.3 51.6z" fill="#ffffff" opacity="1" data-original="#000000"></path><path d="m322.5 153.9-8.1-5.8 4.1 2.9-4.1-2.9c.1-.2 13.3-19.2 13.3-51.6 0-20.9-35.6-43.5-69-57.6l3.9-9.2c22.6 9.6 75.1 35.3 75.1 66.8 0 35.8-14.6 56.5-15.2 57.4z" fill="#ffffff" opacity="1" data-original="#000000"></path><path d="M256 242.5c-16 0-41-27.4-50.6-40.6-11.2-15.5-16.6-48.9-16.8-50.4-.2-1 0-2 .4-2.9l14-30.7c.3-.8.9-1.4 1.5-1.9 1.1-.8 26.1-19.6 51.5-19.6s50.4 18.8 51.5 19.6c.7.5 1.2 1.2 1.5 1.9l14 30.7c.4.9.5 1.9.4 2.9-.2 1.4-5.6 34.9-16.8 50.4-9.6 13.2-34.6 40.6-50.6 40.6zm-57.3-91.1c1.1 6.5 6.2 32.7 14.8 44.6 12.2 16.9 33.4 36.5 42.5 36.5s30.3-19.6 42.5-36.5c8.6-11.9 13.6-38.1 14.8-44.6l-12.8-28.1c-4.7-3.3-25.1-16.9-44.5-16.9-19.5 0-39.8 13.6-44.5 16.9z" fill="#ffffff" opacity="1" data-original="#000000"></path><path d="M386.5 409.7c-2-21.3-9.2-79.3-18.4-92.4-7.2-10.2-17.7-14.6-30.9-20-15.7-6.5-35.2-14.6-56.7-35.7-1-.9-1.5-2.2-1.5-3.6v-38h10v35.9c19.5 18.7 36.7 25.9 52 32.2 14.1 5.8 26.3 10.9 35.2 23.5 12.5 17.6 19.5 89.2 20.2 97.3z" fill="#ffffff" opacity="1" data-original="#000000"></path><path d="M359.2 512h-31.6c-2.5 0-4.6-1.8-4.9-4.3l-2.2-14.3-11.5-4.2c-1.3-.5-2.3-1.5-2.9-2.7-7.8-18.1-9-56.5-8.6-85.6.3-22.3 18.7-40.4 40.9-40.4h24.4c13.6 0 24.2 14.4 32.5 44 5.7 20.3 8.1 40.3 8.2 41.1.2 1.4-.3 2.8-1.2 3.8l-6.6 7.8c-1 1.1-2.3 1.8-3.8 1.8s-2.9-.7-3.8-1.8l-10.1-12v44.6c0 2-1.1 3.7-2.9 4.5l-7.5 3.4-3.7 10.9c-.7 2-2.6 3.4-4.7 3.4zm-27.3-10h23.7l3.3-9.5c.4-1.3 1.4-2.4 2.6-2.9l6.5-3v-55.1c0-2.1 1.3-4 3.3-4.7s4.2-.1 5.5 1.5l15.1 18 1.3-1.6c-4-31.5-15.8-74.2-30.4-74.2h-24.4c-16.8 0-30.7 13.7-30.9 30.5-.5 37.8 2 65.9 7 79.6l12.2 4.4c1.7.6 3 2.1 3.2 4z" fill="#ffffff" opacity="1" data-original="#000000"></path><path d="M372.4 436.5c-9.4 0-27.6-5.9-34-28.5l9.6-2.7c6.1 21.5 24.1 21.3 24.9 21.3l.3 10c-.2-.1-.5-.1-.8-.1zM363.149 449.003l5.486 44.243-9.92 1.23-5.486-44.243zM345.279 447.324l2.066 57.343-9.99.36-2.066-57.343zM326.195 442.56l3.978 46.613-9.96.85-3.978-46.612zM426.4 477.5c-17.4 0-52.8-6.4-54.3-6.7l1.8-9.8c.4.1 36 6.5 52.5 6.5 13.3 0 27-21.2 38.5-59.7 9.3-31 13.9-62.4 13.9-62.7.2-1.6 1.2-3 2.7-3.7L502 331v-24.6L484.4 291c-1.6-1.4-2.1-3.8-1.3-5.7l2.7-6.3-5.8-6h-35.3c-6.4 6.2-15.2 17.3-14.8 24.6.4 8.3 12.8 24.6 20.4 33 1 1.1 1.5 2.6 1.3 4.1-7 45.6-19.7 72.6-37.8 80.5-13.6 5.9-24.7-1.5-25.1-1.8l5.6-8.3c.3.2 7.2 4.6 15.7.9 8.1-3.6 22.9-17.6 31.4-70.5-5.4-6.1-20.8-24.7-21.4-37.4-.8-15.1 17.4-32 19.5-33.8.9-.8 2.1-1.3 3.3-1.3H482c1.3 0 2.5.5 3.5 1.4l9.9 9.5c1.5 1.4 1.9 3.7 1.1 5.6l-2.7 6.2 16.5 14.5c1.1.9 1.7 2.3 1.7 3.8v30c0 1.9-1.1 3.6-2.7 4.5L488.4 349c-1.3 8.3-5.9 35-13.8 61.5-13.3 44.5-29.5 67-48.2 67z" fill="#ffffff" opacity="1" data-original="#000000"></path><path d="M505.1 338.6 480 328.4c-.9-.3-1.6-.9-2.1-1.7l-16.2-22c-1.2-1.6-1.3-3.8-.3-5.5l5.4-8.9-15.6-2 1.3-9.9 23.3 3c1.7.2 3.1 1.3 3.9 2.8s.7 3.3-.2 4.8l-7.6 12.6 13.3 18.1 23.8 9.7zM447.95 329.346l37.166 11.817-3.03 9.53-37.167-11.817zM440.065 366.806l38.112 11.116-2.8 9.6-38.112-11.116zM347.2 279.5c-2.6-11.9-11.1-24.2-20.2-36.9-12-17-24.4-34.5-24.4-54.5h10c0 17 11.5 33.1 22.6 48.7 9.2 13 18.7 26.6 21.8 40.5zM283.1 169.8c-8.9 0-14.6-10.3-16.5-13.8l8.8-4.8c3.9 7 6.8 8.7 7.9 8.6 2.4-.2 6.1-6.3 7.7-11.4l9.5 3c-.9 2.9-6 17.3-16.3 18.3-.3.1-.7.1-1.1.1zM185.8 387.4l-3.7-9.3c11.5-4.6 35.6-22.5 57.8-46.8 25.2-27.6 39.1-53.6 39.1-73.3h10c0 29.9-26.1 63-41.7 80-20.6 22.7-46.5 43.4-61.5 49.4zM174 502h154v10H174zM252 138h10v10h-10zM257 207.9c-15.5 0-21.5-11-21.7-11.5l8.8-4.7-4.4 2.3 4.4-2.4c.1.3 3.6 6.2 12.9 6.2 9.4 0 12.8-6.1 12.8-6.1l8.9 4.6c-.3.6-6.2 11.6-21.7 11.6zM256 105c-.8 0-1.6-.2-2.3-.5-.7-.4-17.7-9.3-17.7-24.5s17-24.1 17.7-24.5c1.4-.7 3.1-.7 4.6 0 .7.4 17.7 9.3 17.7 24.5s-17 24.1-17.7 24.5c-.7.3-1.5.5-2.3.5zm0-39.2c-4 2.7-10 8-10 14.2s6 11.5 10 14.2c4-2.7 10-8 10-14.2s-6-11.5-10-14.2z" fill="#ffffff" opacity="1" data-original="#000000"></path><path d="m449.4 299.7-9-4.4L446 284c-4.8-6.5-16.3-24-16.3-35h10c0 8 9.8 23.4 16.1 31.4 1.2 1.5 1.4 3.5.5 5.2z" fill="#ffffff" opacity="1" data-original="#000000"></path><path d="M435 254c-32.4 0-47.2-21.8-48.9-31.8-.3-1.9.4-3.7 1.9-4.9 1.5-1.1 3.5-1.3 5.1-.5-1.4-6.6-.6-14.2 5.3-21.1.9-1.1 2.3-1.8 3.8-1.8 1.4 0 2.8.6 3.8 1.7l2.4 2.7c1-5.2 3.6-10.6 9.6-14.4 1.2-.7 2.6-1 4-.6 1.3.4 2.5 1.3 3.1 2.5l2.6 5 2.9-6.1c.8-1.8 2.6-2.9 4.5-2.9s3.7 1.1 4.5 2.9l2.9 6.1 2.6-5c.6-1.2 1.8-2.1 3.1-2.5s2.8-.1 4 .6c5.9 3.8 8.6 9.2 9.6 14.4l2.4-2.7c1-1.1 2.4-1.7 3.8-1.7 1.5 0 2.8.7 3.8 1.8 5.9 6.9 6.6 14.5 5.2 21.1 1.7-.8 3.6-.6 5.1.5s2.2 3 1.9 4.9c-1.6 8.5-15.9 31.8-49 31.8zm-31.3-21.5c6.3 5.9 16.4 11.5 31.3 11.5 14.7 0 24.8-5.6 31.1-11.5-1.4-.1-2.7-.8-3.6-1.9-1.5-1.9-1.4-4.5.1-6.3.3-.4 6.8-8.4 4.4-16.8l-7 8c-1.5 1.8-4.1 2.2-6.2 1.1s-3.1-3.5-2.4-5.8c0-.1 2.3-8.2-.8-14.2l-4.1 7.7c-.9 1.7-2.7 2.7-4.5 2.7-1.9 0-3.6-1.2-4.4-2.9l-2.6-5.5-2.6 5.5c-.8 1.7-2.5 2.8-4.4 2.9-1.9 0-3.7-1-4.5-2.7l-4.1-7.7c-3.1 6-.8 14.1-.8 14.2.7 2.3-.3 4.7-2.4 5.8s-4.6.7-6.2-1.1l-7-8c-2.5 8.4 4.1 16.4 4.4 16.8 1.5 1.8 1.5 4.4.1 6.3-.9 1.2-2.3 1.9-3.8 1.9zM62.6 299.7l-6.9-14.2c-.8-1.7-.6-3.7.5-5.2 6.2-8 16.1-23.4 16.1-31.4h10c0 11-11.5 28.5-16.3 35l5.6 11.4z" fill="#ffffff" opacity="1" data-original="#000000"></path><path d="M77 254c-33.1 0-47.4-23.3-48.9-31.8-.3-1.9.4-3.7 1.9-4.9 1.5-1.1 3.5-1.3 5.1-.5-1.4-6.6-.6-14.2 5.2-21.1.9-1.1 2.3-1.7 3.8-1.7 1.4 0 2.8.6 3.8 1.7l2.4 2.7c1-5.2 3.6-10.7 9.6-14.4 1.2-.7 2.6-1 4-.6 1.3.4 2.5 1.3 3.1 2.5l2.6 5 2.9-6.1c.8-1.8 2.6-2.9 4.5-2.9s3.7 1.1 4.5 2.9l2.9 6.1 2.6-5c.7-1.2 1.8-2.1 3.1-2.5s2.8-.1 4 .6c5.9 3.8 8.6 9.2 9.6 14.4l2.4-2.7c1-1.1 2.3-1.8 3.8-1.7 1.5 0 2.8.7 3.8 1.8 5.9 6.9 6.6 14.5 5.3 21.1 1.7-.8 3.6-.6 5.1.5s2.2 3 1.9 4.9c-1.8 9.9-16.6 31.7-49 31.7zm-31.1-21.5C52.2 238.4 62.3 244 77 244c14.8 0 25-5.6 31.3-11.5-1.5 0-2.9-.7-3.8-1.9-1.5-1.9-1.4-4.5.1-6.3.3-.4 6.8-8.4 4.4-16.7l-7 8c-1.5 1.8-4.1 2.2-6.2 1.1s-3.1-3.5-2.4-5.8c0-.1 2.3-8.2-.8-14.2l-4.1 7.7c-.9 1.7-2.6 2.7-4.5 2.7s-3.6-1.2-4.4-2.9l-2.6-5.5-2.6 5.5c-.8 1.7-2.5 2.8-4.4 2.9s-3.7-1-4.5-2.7l-4.1-7.7c-3 6-.8 14.1-.8 14.2.6 2.3-.4 4.7-2.4 5.8-2.1 1.1-4.6.7-6.2-1.1l-7-8c-2.4 8.3 4.1 16.4 4.4 16.8 1.5 1.8 1.5 4.4.1 6.3-.9 1.1-2.2 1.7-3.6 1.8zM256 302.7c-30.2 0-54-20.9-55-21.7l6.7-7.5c.2.2 22 19.2 48.3 19.2 4.9 0 10.1-.7 15.3-2l2.5 9.7c-6 1.5-12 2.3-17.8 2.3z" fill="#ffffff" opacity="1" data-original="#000000"></path></g></svg>