<svg xmlns="http://www.w3.org/2000/svg" version="1.1" xmlns:xlink="http://www.w3.org/1999/xlink" width="512" height="512" x="0" y="0" viewBox="0 0 32 32" style="enable-background:new 0 0 512 512" xml:space="preserve" class=""><g><linearGradient id="a" x1="16" x2="16" y1="32" y2="0" gradientUnits="userSpaceOnUse"><stop stop-opacity="1" stop-color="#ff2d76" offset="0"></stop><stop stop-opacity="1" stop-color="#ffffff" offset="0"></stop></linearGradient><path fill="url(#a)" d="M14.796 16.836c-.765-.708-1.615-1.701-1.983-2.579-.057-.113-.17-.397 0-.623.34-.454.397-.482.765-.907.255-.312.453-.595.368-.851L12.671 8.56c-.114-.227-.453-.255-.85-.284-.34 0-.708 0-.963.057-.566.199-1.728 1.729-1.869 2.835-.312 2.409 1.869 5.612 4.051 7.596 2.182 2.013 5.553 3.912 7.932 3.373 1.105-.255 2.522-1.53 2.635-2.126.057-.255.028-.623-.028-.964-.028-.396-.113-.68-.341-.793l-2.889-1.333c-.256-.142-.51-.028-.765.284-.311.425-.454.595-.822 1.049-.198.255-.34.425-.566.453-.256.057-.595-.085-.652-.085-.907-.312-1.955-1.077-2.748-1.786zM5.278 27.011l1.643-4.167a11.977 11.977 0 0 1-2.918-7.851c0-6.632 5.382-11.989 12.012-11.989a11.972 11.972 0 0 1 11.983 11.989c0 6.633-5.354 12.018-11.983 12.018-2.663 0-5.1-.851-7.082-2.324zM3.266 22.93 1 32l8.102-3.685a14.933 14.933 0 0 0 6.913 1.701c8.27 0 14.985-6.718 14.985-15.022C31 6.718 24.285 0 16.014 0 7.714 0 1 6.718 1 14.993c0 2.92.85 5.641 2.266 7.937z" opacity="1" data-original="url(#a)"></path></g></svg>