<svg xmlns="http://www.w3.org/2000/svg" version="1.1" xmlns:xlink="http://www.w3.org/1999/xlink" width="512" height="512" x="0" y="0" viewBox="0 0 512 512" style="enable-background:new 0 0 512 512" xml:space="preserve" class=""><g><path d="M386.564 467.477C348.623 490.951 303.894 504.5 256 504.5 118.757 504.5 7.5 393.243 7.5 256S118.757 7.5 256 7.5c40.915 0 79.52 9.888 113.557 27.405M399.527 53.115C463.044 98.13 504.5 172.224 504.5 256c0 76.774-34.816 145.417-89.521 191" style="stroke-width:15;stroke-linecap:round;stroke-linejoin:round;stroke-miterlimit:10;" fill="none" stroke="#ffffff" stroke-width="15" stroke-linecap="round" stroke-linejoin="round" stroke-miterlimit="10" data-original="#000000" opacity="1"></path><path d="M90.589 273.809V351.5L256 447l165.411-95.5v-191L256 65 90.589 160.5v78.33M90.589 351.5h330.822M256 65l165.411 286.5M90.589 351.5 256 65M421.411 160.5H90.589M256 447 90.589 160.5M421.411 160.5 256 447M173.295 303.75h165.41M256 160.5l82.705 143.25M173.295 303.75 256 160.5M338.705 208.25h-165.41M255.993 351.488 173.295 208.25M338.705 208.25l-82.696 143.235" style="stroke-width:15;stroke-linecap:round;stroke-linejoin:round;stroke-miterlimit:10;" fill="none" stroke="#ffffff" stroke-width="15" stroke-linecap="round" stroke-linejoin="round" stroke-miterlimit="10" data-original="#000000" opacity="1"></path><circle cx="256" cy="65" r="57.5" style="stroke-width:15;stroke-linecap:round;stroke-linejoin:round;stroke-miterlimit:10;" fill="none" stroke="#ffffff" stroke-width="15" stroke-linecap="round" stroke-linejoin="round" stroke-miterlimit="10" data-original="#000000" opacity="1"></circle><circle cx="256" cy="447" r="57.5" style="stroke-width:15;stroke-linecap:round;stroke-linejoin:round;stroke-miterlimit:10;" fill="none" stroke="#ffffff" stroke-width="15" stroke-linecap="round" stroke-linejoin="round" stroke-miterlimit="10" data-original="#000000" opacity="1"></circle><circle cx="421.411" cy="160.5" r="57.5" style="stroke-width:15;stroke-linecap:round;stroke-linejoin:round;stroke-miterlimit:10;" fill="none" stroke="#ffffff" stroke-width="15" stroke-linecap="round" stroke-linejoin="round" stroke-miterlimit="10" data-original="#000000" opacity="1"></circle><circle cx="90.589" cy="351.5" r="57.5" style="stroke-width:15;stroke-linecap:round;stroke-linejoin:round;stroke-miterlimit:10;" fill="none" stroke="#ffffff" stroke-width="15" stroke-linecap="round" stroke-linejoin="round" stroke-miterlimit="10" data-original="#000000" opacity="1"></circle><circle cx="421.411" cy="351.5" r="57.5" style="stroke-width:15;stroke-linecap:round;stroke-linejoin:round;stroke-miterlimit:10;" fill="none" stroke="#ffffff" stroke-width="15" stroke-linecap="round" stroke-linejoin="round" stroke-miterlimit="10" data-original="#000000" opacity="1"></circle><path d="M86.433 103.145c-18.356 1.347-35.744 11.465-45.64 28.605-15.878 27.502-6.455 62.668 21.046 78.546s62.668 6.455 78.546-21.046c15.7-27.193 6.663-61.881-20.128-78.005" style="stroke-width:15;stroke-linecap:round;stroke-linejoin:round;stroke-miterlimit:10;" fill="none" stroke="#ffffff" stroke-width="15" stroke-linecap="round" stroke-linejoin="round" stroke-miterlimit="10" data-original="#000000" opacity="1"></path></g></svg>